<svg class="svg-emoticons" height="16px" version="1.1" viewBox="0 0 16 16" width="16px" x="0px" y="0px">
  <path clip-rule="evenodd" d="M6.71428571,5.14285714 L5,5.14285714 L5,6.85714286 L6.71428571,6.85714286 L6.71428571,5.14285714 L6.71428571,5.14285714 Z M12,0 L4,0 L0,4 L0,12 L4,16 L12,16 L16,12 L16,4 L12,0 L12,0 Z M5,2 L2,5 L2,11 L5,14 L11,14 L14,11 L14,5 L11,2 L5,2 Z M9.28571429,6.85714286 L11,6.85714286 L11,5.14285714 L9.28571429,5.14285714 L9.28571429,6.85714286 L9.28571429,6.85714286 Z M6.00000003,12 L10,12 L11.9999997,9.99999999 L11.9999997,8.99999999 L4.00000003,8.99999999 L4.00000003,9.99999999 L6.00000003,12 Z" fill-rule="evenodd"></path>
</svg>
